<svg viewBox="0 0 64 64" xmlns="http://www.w3.org/2000/svg">
  <defs>
    <linearGradient id="chargeGradient" x1="0%" y1="0%" x2="100%" y2="100%">
      <stop offset="0%" style="stop-color:#4169E1;stop-opacity:1" />
      <stop offset="100%" style="stop-color:#1E40AF;stop-opacity:1" />
    </linearGradient>
  </defs>
  
  <!-- Background circle -->
  <circle cx="32" cy="32" r="30" fill="url(#chargeGradient)" />
  
  <!-- Shield shape -->
  <path d="M 32 10 L 48 16 L 48 38 C 48 48 32 54 32 54 C 32 54 16 48 16 38 L 16 16 Z" fill="#87CEEB" opacity="0.9" />
  
  <!-- Shield inner -->
  <path d="M 32 14 L 44 18 L 44 38 C 44 46 32 51 32 51 C 32 51 20 46 20 38 L 20 18 Z" fill="#B0E0E6" opacity="0.8" />
  
  <!-- Lightning bolt inside shield -->
  <path d="M 32 22 L 36 32 L 34 32 L 38 44 L 26 34 L 28 34 Z" fill="#FFD700" opacity="0.9" />
  
  <!-- Highlight -->
  <line x1="26" y1="20" x2="34" y2="26" stroke="#FFFFFF" stroke-width="2" opacity="0.6" />
  
  <!-- Outer glow -->
  <circle cx="32" cy="32" r="30" fill="none" stroke="#4169E1" stroke-width="2" opacity="0.5" />
</svg>
